Coordinates
version=1
nRows=17
nColumns=40
inDegrees=yes

Units are S.I. units (second, meters, Newtons, ...)
Angles are in degrees.

endheader
time	pelvis_tilt	pelvis_list	pelvis_rotation	pelvis_tx	pelvis_ty	pelvis_tz	hip_flexion_r	hip_adduction_r	hip_rotation_r	knee_angle_r	knee_angle_r_beta	ankle_angle_r	subtalar_angle_r	mtp_angle_r	hip_flexion_l	hip_adduction_l	hip_rotation_l	knee_angle_l	knee_angle_l_beta	ankle_angle_l	subtalar_angle_l	mtp_angle_l	lumbar_extension	lumbar_bending	lumbar_rotation	arm_flex_r	arm_add_r	arm_rot_r	elbow_flex_r	pro_sup_r	wrist_flex_r	wrist_dev_r	arm_flex_l	arm_add_l	arm_rot_l	elbow_flex_l	pro_sup_l	wrist_flex_l	wrist_dev_l
     11.67500000	     -4.97686278	     -5.52193547	     -6.61822044	      1.09732955	      0.93037475	      0.43475162	     25.40725835	      1.78313208	    -16.67863524	      6.16084925	      6.16084925	     -0.60014555	     13.38244791	     10.49212131	      6.57700357	     -7.03261762	    -14.24295543	     17.63636342	     17.63636342	     15.00756613	    -13.64778761	     -3.35094790	    -12.29192833	      4.37970997	      1.02140064	     -8.82461101	    -13.89185591	    -11.63447668	     29.38429263	     46.93890978	      0.00000000	      0.00000000	     15.16649619	    -17.11652566	     -3.11861366	     77.14011842	     47.03326856	      0.00000000	      0.00000000
     11.68807143	     -4.78108489	     -5.57746328	     -6.55379753	      1.09922207	      0.92975424	      0.43638365	     24.83269106	      2.01118352	    -16.68645804	      6.63819623	      6.63819623	     -1.62132560	     12.41968909	      7.07446347	      5.84396317	     -7.18035625	    -14.45412343	     17.69920949	     17.69920949	     15.90195321	    -12.89422573	     -2.56359156	    -12.32229004	      4.54056729	      1.16923521	     -8.91950921	    -13.60407820	    -12.06950686	     30.27972734	     46.87693742	      0.00000000	      0.00000000	     15.56796247	    -16.76831486	     -2.41528933	     76.83894507	     47.04823702	      0.00000000	      0.00000000
     11.70114286	     -4.63948325	     -5.61145882	     -6.46499129	      1.10126568	      0.92898728	      0.43800408	     24.45268799	      2.07714657	    -16.59680444	      7.86542458	      7.86542458	     -1.51879179	     11.51934853	      6.31269601	      5.14831047	     -7.25452230	    -14.41769780	     17.66199676	     17.66199676	     16.32960548	    -12.80153012	     -2.50907681	    -12.22537176	      4.67125116	      1.02874538	     -8.59492314	    -13.44405258	    -12.06858918	     30.51177997	     46.86077473	      0.00000000	      0.00000000	     15.56503603	    -16.54776511	     -2.26541503	     76.74472813	     47.04677355	      0.00000000	      0.00000000
     11.71421429	     -4.48065776	     -5.64171673	     -6.28025281	      1.10353259	      0.92789085	      0.43976218	     23.93732152	      2.20316237	    -15.65640859	      9.02542709	      9.02542709	     -2.40949643	      9.49076010	      2.36780325	      4.61791310	     -7.42294581	    -14.45533573	     18.05164508	     18.05164508	     17.42293431	    -12.19690283	     -1.42635004	    -12.08680630	      4.79928226	      0.96612250	     -8.55389925	    -13.28814394	    -11.95576532	     31.34182652	     46.76793747	      0.00000000	      0.00000000	     15.60089199	    -16.27745510	     -1.93072170	     76.50808029	     47.07896687	      0.00000000	      0.00000000
     11.72728571	     -4.24292117	     -5.64370930	     -6.04288621	      1.10601423	      0.92685321	      0.44143650	     23.52999693	      2.13092047	    -15.05074715	     10.80103019	     10.80103019	     -1.91142115	      8.38708278	      1.55980677	      3.92425943	     -7.49829011	    -14.30379645	     18.22941223	     18.22941223	     17.95373108	    -12.07327722	     -1.35999051	    -12.00972132	      4.90328029	      0.74922513	     -8.17103786	    -13.14401289	    -11.88443042	     31.66902659	     46.74332621	      0.00000000	      0.00000000	     15.48850219	    -16.07569981	     -1.77695211	     76.29506854	     47.07456284	      0.00000000	      0.00000000
     11.74035714	     -4.01806650	     -5.66136256	     -5.72871292	      1.10861940	      0.92565852	      0.44315780	     23.12422149	      2.13873906	    -13.94565913	     12.50355584	     12.50355584	     -1.38185635	      6.73747892	      0.57809983	      3.38493318	     -7.64967706	    -14.09984911	     18.68139975	     18.68139975	     18.65634488	    -11.89015801	     -1.01981221	    -11.87683443	      5.05636192	      0.53364402	     -7.83446467	    -13.01351628	    -11.73461594	     32.19709138	     46.70133248	      0.00000000	      0.00000000	     15.28681354	    -15.83555866	     -1.62474663	     75.97748990	     47.07168627	      0.00000000	      0.00000000
     11.75342857	     -3.70911926	     -5.76382347	     -5.37735737	      1.11137160	      0.92458136	      0.44499651	     22.51787230	      2.32323967	    -12.63542506	     13.86309742	     13.86309742	     -0.93612456	      4.89209326	     -0.62302061	      2.90632690	     -7.95856686	    -13.87142392	     19.49459360	     19.49459360	     19.78991116	    -11.51000047	      0.14218990	    -11.85248950	      5.30032790	      0.44318183	     -7.67306823	    -13.00694561	    -11.27336073	     33.20214525	     46.60262677	      0.00000000	      0.00000000	     15.12226727	    -15.53634276	     -1.51978404	     75.49852723	     47.08747807	      0.00000000	      0.00000000
     11.76650000	     -3.38056087	     -5.76706249	     -4.99313831	      1.11421082	      0.92365221	      0.44671141	     22.02642893	      2.30596008	    -11.79755239	     15.34961914	     15.34961914	     -0.01789953	      3.97623340	     -1.25800521	      2.42333054	     -8.13683739	    -13.53563623	     20.24525998	     20.24525998	     20.32205598	    -11.55664380	      0.37284013	    -11.81277400	      5.44319630	      0.25011333	     -7.24316613	    -12.95188488	    -11.08727928	     33.69861461	     46.56415336	      0.00000000	      0.00000000	     14.83664736	    -15.30875136	     -1.41461511	     75.03473536	     47.08153102	      0.00000000	      0.00000000
     11.77957143	     -2.93705364	     -5.88004886	     -4.62252180	      1.11708273	      0.92312829	      0.44853350	     21.35240863	      2.43389293	    -11.05776878	     16.54078296	     16.54078296	      0.90489104	      3.21277384	     -1.74705896	      1.94916984	     -8.46802362	    -13.07480178	     21.25860186	     21.25860186	     20.70498900	    -11.81044341	      0.45263509	    -11.93814137	      5.70295377	      0.17064685	     -6.71730229	    -12.96927174	    -10.96092568	     34.12809558	     46.53738743	      0.00000000	      0.00000000	     14.53343338	    -15.04997200	     -1.34996697	     74.56550229	     47.07338476	      0.00000000	      0.00000000
     11.79264286	     -2.72479627	     -5.87193112	     -4.25115498	      1.11974157	      0.92251467	      0.45035118	     21.03679581	      2.50728754	    -10.15980063	     17.67465823	     17.67465823	      1.87367953	      1.90955657	     -2.18228422	      2.00477775	     -8.75295480	    -12.59706121	     22.73326234	     22.73326234	     21.05418220	    -12.17862858	      0.76105141	    -11.80633506	      5.89037170	      0.09861642	     -6.21939336	    -12.97077100	    -10.66280969	     34.80073927	     46.48532247	      0.00000000	      0.00000000	     14.08403825	    -14.71230440	     -1.44439136	     73.66756084	     47.07322306	      0.00000000	      0.00000000
     11.80571429	     -2.19765791	     -5.82462876	     -3.98642684	      1.12273986	      0.92292229	      0.45225717	     20.12408163	      2.50541271	     -9.69500487	     18.23974528	     18.23974528	      2.83196474	      1.69795001	     -2.57253114	      1.59837872	     -8.95511024	    -12.24040669	     24.02246863	     24.02246863	     20.99910921	    -12.54823001	      0.67167624	    -12.03173384	      5.98172570	      0.32272167	     -5.65683472	    -12.96875667	    -10.59480393	     35.07545253	     46.47255570	      0.00000000	      0.00000000	     13.45508534	    -14.27408272	     -1.30704434	     73.25055691	     47.05462434	      0.00000000	      0.00000000
     11.81878571	     -2.09353931	     -5.92581461	     -3.61778414	      1.12487448	      0.92260368	      0.45437308	     20.07271419	      2.70058096	     -9.17769159	     19.33875596	     19.33875596	      3.66296050	      0.27073422	     -2.98005362	      2.44215430	     -9.52539103	    -11.51428982	     26.62706582	     26.62706582	     20.87033072	    -13.48815469	      0.66455585	    -11.86130574	      6.26986654	      0.23999615	     -4.96851811	    -13.14263136	    -10.09761871	     35.93127116	     46.40059813	      0.00000000	      0.00000000	     13.20666848	    -13.96172676	     -1.85078331	     71.67191877	     47.07897339	      0.00000000	      0.00000000
     11.83185714	     -1.79197890	     -5.97042148	     -3.37737520	      1.12719842	      0.92304071	      0.45658394	     19.53179012	      2.81963526	     -8.95051241	     19.88154196	     19.88154196	      4.47240208	     -0.12214571	     -3.36409030	      3.03373748	    -10.01593712	    -10.95321561	     29.18263278	     29.18263278	     20.36677348	    -14.29886665	      0.31505489	    -11.93652465	      6.44948896	      0.46423972	     -4.22568864	    -13.26186100	     -9.77572282	     36.47382317	     46.35770379	      0.00000000	      0.00000000	     12.69946364	    -13.57260491	     -2.07933203	     70.67475133	     47.08358039	      0.00000000	      0.00000000
     11.84492857	     -1.52019170	     -5.99059731	     -3.13144098	      1.12923682	      0.92359958	      0.45894185	     19.02326341	      2.92145839	     -8.85833767	     20.36328963	     20.36328963	      5.18007724	     -0.55533403	     -3.71543464	      3.95483788	    -10.56269736	    -10.38623648	     32.18787187	     32.18787187	     19.44861177	    -15.23337895	     -0.33120672	    -12.00126025	      6.59268595	      0.66770916	     -3.37390575	    -13.40519301	     -9.39868919	     37.05611453	     46.31032908	      0.00000000	      0.00000000	     12.19319086	    -13.21370835	     -2.44374607	     69.47197855	     47.09520403	      0.00000000	      0.00000000
     11.85800000	     -1.13674380	     -6.07146756	     -2.87472773	      1.13107649	      0.92443579	      0.46144515	     18.31145719	      3.07947212	     -8.95866266	     20.67730511	     20.67730511	      5.84178687	     -0.75830487	     -4.00648156	      4.98310976	    -11.23456062	     -9.81863572	     35.53245182	     35.53245182	     18.26457684	    -16.08419719	     -0.85069575	    -12.28022770	      6.75266339	      1.00145309	     -2.40519748	    -13.54880198	     -9.23685595	     37.51557359	     46.28624656	      0.00000000	      0.00000000	     11.67936963	    -12.96832313	     -2.59250018	     68.67945653	     47.09310990	      0.00000000	      0.00000000
     11.87107143	     -1.03550915	     -6.11785156	     -2.60192477	      1.13249235	      0.92483837	      0.46401246	     17.90886816	      3.25680032	     -8.95832361	     20.93122962	     20.93122962	      6.32987818	     -1.28528887	     -4.33757551	      6.57220801	    -11.96521961	     -9.25334126	     39.13521818	     39.13521818	     16.10656393	    -17.11158762	     -3.02109372	    -12.15145110	      6.89853034	      1.11174760	     -1.54588121	    -13.87573423	     -8.01796010	     38.46295645	     46.16393959	      0.00000000	      0.00000000	     11.37653876	    -12.27217944	     -3.95723395	     66.31829317	     47.17096555	      0.00000000	      0.00000000
     11.88414286	     -0.85052001	     -6.27893289	     -2.24632733	      1.13361931	      0.92530376	      0.46658213	     17.33202871	      3.50962696	     -9.27453600	     21.04592416	     21.04592416	      6.82105348	     -1.37043464	     -4.53525503	      8.36259714	    -12.82266028	     -8.47487347	     43.13025447	     43.13025447	     14.36660927	    -17.73616483	     -3.37774634	    -12.22737425	      7.09260753	      1.36637277	     -0.50160169	    -14.04695138	     -7.89385023	     38.98041025	     46.14052966	      0.00000000	      0.00000000	     10.71334162	    -12.16277999	     -3.96363391	     65.70759268	     47.15964901	      0.00000000	      0.00000000
